# AST/ASF file generated using VICON BodyLanguage
# -----------------------------------------------
:version 1.10
:name VICON
:units
  mass 1.0
  length 0.45
  angle deg
:documentation
   .ast/.asf automatically generated from VICON data using
   VICON BodyBuilder and BodyLanguage model FoxedUp or BRILLIANT.MOD
:root
   order TX TY TZ RX RY RZ
   axis XYZ
   position 0 0 0  
   orientation 0 0 0 
:bonedata
  begin
     id 1 
     name lhipjoint
     direction 0.710188 -0.616876 0.339259 
     length 2.5669 
     axis 0 0 0  XYZ
  end
  begin
     id 2 
     name lfemur
     direction 0.34202 -0.939693 0  
     length 7.12796  
     axis 0 0 20  XYZ
    dof rx ry rz
    limits (-160.0 20.0)
           (-70.0 70.0)
           (-60.0 70.0)
  end
  begin
     id 3 
     name ltibia
     direction 0.34202 -0.939693 0   
     length 7.58108   
     axis 0 0 20   XYZ
    dof rx
    limits (-10.0 170.0)
  end
  begin
     id 4 
     name lfoot
     direction 0.0669471 -0.183936 0.980656   
     length 2.17365   
     axis -90 7.62852e-016 20   XYZ
    dof rx rz
    limits (-45.0 90.0)
           (-70.0 20.0)
  end
  begin
     id 5 
     name ltoes
     direction 1.53508e-011 -4.21705e-011 1   
     length 1.09427   
     axis -90 7.62852e-016 20   XYZ
    dof rx
    limits (-90.0 20.0)
  end
  begin
     id 6 
     name rhipjoint
     direction -0.700191 -0.625589 0.34405   
     length 2.53115  
     axis 0 0 0  XYZ 
  end
  begin
     id 7 
     name rfemur
     direction -0.34202 -0.939693 0   
     length 7.33006   
     axis 0 0 -20   XYZ
    dof rx ry rz
    limits (-160.0 20.0)
           (-70.0 70.0)
           (-70.0 60.0)
  end
  begin
     id 8 
     name rtibia
     direction -0.34202 -0.939693 0   
     length 7.64926   
     axis 0 0 -20   XYZ
    dof rx
    limits (-10.0 170.0)
 end
 begin
     id 9 
     name rfoot
     direction -0.0688927 -0.189281 0.979503   
     length 2.20493  
     axis -90 -7.62852e-016 -20   XYZ
    dof rx rz
    limits (-45.0 90.0)
           (-20.0 70.0)
  end
  begin
     id 10 
     name rtoes
     direction -1.53567e-011 -4.21933e-011 1   
     length 1.10919   
     axis -90 -7.62852e-016 -20   XYZ
    dof rx
    limits (-90.0 20.0)
  end
  begin
     id 11 
     name lowerback
     direction -0.0167868 0.989873 -0.140959   
     length 2.14596   
     axis 0 0 0   XYZ
    dof rx ry rz
    limits (-20.0 45.0)
           (-30.0 30.0)
           (-30.0 30.0)
  end
  begin
     id 12 
     name upperback
     direction 0.0129109 0.998033 0.0613525   
     length 2.10457   
     axis 0 0 0   XYZ
    dof rx ry rz
    limits (-20.0 45.0)
           (-30.0 30.0)
           (-30.0 30.0)
  end
  begin
     id 13 
     name thorax
     direction 0.0177047 0.991119 0.131797   
     length 2.17652   
     axis 0 0 0   XYZ
    dof rx ry rz
    limits (-20.0 45.0)
           (-30.0 30.0)
           (-30.0 30.0)
  end
  begin
     id 14 
     name lowerneck
     direction -0.0336893 0.997548 0.0613464   
     length 1.8912   
     axis 0 0 0   XYZ
    dof rx ry rz
    limits (-20.0 45.0)
           (-30.0 30.0)
           (-30.0 30.0)
  end
  begin
     id 15 
     name upperneck
     direction 0.0435909 0.997179 -0.0611028   
     length 1.8829   
     axis 0 0 0   XYZ
    dof rx ry rz
    limits (-20.0 45.0)
           (-30.0 30.0)
           (-30.0 30.0)
  end
  begin
     id 16
     name head
     direction 0.0175076 0.999444 -0.0283782  
     length 1.93197  
     axis 0 0 0   XYZ
    dof rx ry rz
    limits (-20.0 45.0)
           (-30.0 30.0)
           (-30.0 30.0)
  end
  begin
     id 17 
     name lclavicle
     direction 0.919164 0.389875 0.0559876  
     length 3.60004  
     axis 0 0 0   XYZ
    dof ry rz
    limits (-20.0 10.0)
           (0.0 20.0)
  end
  begin
     id 18 
     name lhumerus
     direction 1 -4.48958e-011 6.89191e-027   
     length 5.43301   
     axis 180 -30 -90   XYZ
    dof rx ry rz
    limits (-60.0 90.0)
           (-90.0 90.0)
           (-90.0 90.0)
  end
  begin
     id 19
     name lradius
     direction 1 -4.4897e-011 3.24727e-027   
     length 3.15936   
     axis 180 -30 -90   XYZ
    dof rx
    limits (-10.0 170.0)
  end
  begin
     id 20
     name lwrist
     direction 1 -4.4897e-011 9.00228e-027   
     length 1.57968   
     axis -6.29373e-015 90 90   XYZ
    dof ry
    limits (-180.0 0.0)
 end
  begin
     id 21 
     name lhand
     direction 1 -4.48968e-011 1.80042e-026   
     length 0.712827   
     axis -1.14882e-014 90 90   XYZ
    dof rx rz
    limits (-90.0 90.0)
           (-45.0 45.0)
  end
  begin
     id 22 
     name lfingers
     direction 1 -4.49019e-011 3.60267e-026   
     length 0.574699   
     axis -2.29769e-014 90 90   XYZ
    dof rx
    limits (0.0 90.0)
  end
  begin
     id 23
     name lthumb
     direction 0.707107 -6.3498e-011 0.707107   
     length 0.825157   
     axis -90 45 5.37419e-014   XYZ
    dof rx rz
    limits (-45.0 45.0)
           (-45.0 45.0)
  end
  begin
     id 24 
     name rclavicle
     direction -0.890334 0.455305 -0.00132111   
     length 3.51494  
     axis 0 0 0   XYZ 
    dof ry rz
    limits (-10.0 20.0)
           (-20.0 0.0)
  end
  begin
     id 25 
     name rhumerus
     direction -1 -4.48967e-011 5.07175e-028  
     length 5.34194   
     axis 180 30 90   XYZ
    dof rx ry rz
    limits (-90.0 60.0)
           (-90.0 90.0)
           (-90.0 90.0)
  end
  begin
     id 26 
     name rradius
     direction -1 -4.48955e-011 3.30467e-027   
     length 3.19351   
     axis 180 30 90   XYZ
    dof rx
    limits (-10.0 170.0)
  end
  begin
     id 27 
     name rwrist
     direction -1 -4.48968e-011 9.00208e-027   
     length 1.59676   
     axis -6.29373e-015 -90 -90   XYZ
    dof ry
    limits (-180.0 0.0)
  end
  begin
     id 28
     name rhand
     direction -1 -4.49e-011 1.80099e-026   
     length 0.743862   
     axis -1.14882e-014 -90 -90   XYZ
    dof rx rz
    limits (-90.0 90.0)
           (-45.0 45.0)
  end
  begin
     id 29
     name rfingers
     direction -1 -4.49009e-011 3.6023e-026   
     length 0.599721   
     axis -2.29769e-014 -90 -90   XYZ
    dof rx
    limits (0.0 90.0)
  end
  begin
     id 30
     name rthumb
     direction -0.707107 -6.35025e-011 0.707107   
     length 0.861083   
     axis -90 -45 -5.37419e-014   XYZ
    dof rx rz
    limits (-45.0 45.0)
           (-45.0 45.0)
  end
:hierarchy
  begin
    root lhipjoint rhipjoint lowerback
    lhipjoint lfemur
    lfemur ltibia
    ltibia lfoot
    lfoot ltoes
    rhipjoint rfemur
    rfemur rtibia
    rtibia rfoot
    rfoot rtoes
    lowerback upperback
    upperback thorax
    thorax lowerneck lclavicle rclavicle
    lowerneck upperneck
    upperneck head
    lclavicle lhumerus
    lhumerus lradius
    lradius lwrist
    lwrist lhand lthumb
    lhand lfingers
    rclavicle rhumerus
    rhumerus rradius
    rradius rwrist
    rwrist rhand rthumb
    rhand rfingers
  end

#!OML:ASF H:\Martial Arts Walks\Project 1\Capture day 1\Session 1\male.ASF
:FULLY-SPECIFIED
:DEGREES
751
root -1.46624 14.1223 1.85099 15.2646 -49.1459 -14.2622
lowerback 14.1895 4.66657 5.47288
upperback -3.66088 7.53692 2.34657
thorax -11.6145 3.26693 -2.27054
lowerneck -2.46431 7.85231 0.549993
upperneck 3.19398 10.3993 1.58615
head 1.33502 5.22501 0.589792
rclavicle -1.90026e-014 -3.02898e-014
rhumerus -47.1429 45.4487 -102.617
rradius 108.413
rwrist -70.2218
rhand 3.26617 -27.6035
rfingers 7.12502
rthumb 28.7149 -55.4159
lclavicle -1.90026e-014 -3.02898e-014
lhumerus 1.86158 11.8764 78.848
lradius 88.0607
lwrist -19.2139
lhand -37.2912 45.2402
lfingers 7.12502
lthumb -10.3556 74.9652
rfemur -26.9021 -35.514 16.4691
rtibia 75.0414
rfoot -31.5494 -19.3339
rtoes -26.0156
lfemur -66.1074 43.9046 -13.9434
ltibia 73.2282
lfoot -8.00297 15.6387
ltoes -2.97845
752
root -1.45895 14.1369 1.92153 15.5783 -48.4295 -14.4385
lowerback 14.1299 4.6101 5.62097
upperback -3.68388 7.49287 2.41724
thorax -11.6006 3.23882 -2.26027
lowerneck -2.48125 7.70908 0.487507
upperneck 2.97104 10.2157 1.50539
head 1.26926 5.13063 0.565799
rclavicle 4.45433e-014 -6.93262e-015
rhumerus -46.0188 44.8428 -101.663
rradius 107.238
rwrist -69.0878
rhand 2.47976 -27.677
rfingers 7.12502
rthumb 27.9633 -55.6143
lclavicle 4.45433e-014 -6.93262e-015
lhumerus 1.68026 11.6018 78.8617
lradius 88.0265
lwrist -18.9148
lhand -37.1284 45.1125
lfingers 7.12502
lthumb -10.1985 74.8453
rfemur -26.5484 -35.8236 16.5033
rtibia 74.5134
rfoot -31.1639 -19.5435
rtoes -26.3778
lfemur -66.797 43.736 -14.499
ltibia 73.5379
lfoot -8.28432 16.9772
ltoes -1.86539
753
root -1.45216 14.1524 1.995 15.8744 -47.649 -14.6084
lowerback 14.0684 4.55828 5.77202
upperback -3.70751 7.45583 2.49272
thorax -11.5863 3.21402 -2.24787
lowerneck -2.49992 7.54841 0.419683
upperneck 2.73576 10.0089 1.42605
head 1.19984 5.02472 0.54264
rclavicle 9.59586e-014 3.71479e-014
rhumerus -44.8884 44.187 -100.725
rradius 106.001
rwrist -68.0659
rhand 1.39571 -27.9423
rfingers 7.12502
rthumb 26.9265 -56.044
lclavicle 9.59586e-014 3.71479e-014
lhumerus 1.46683 11.2875 78.925
lradius 88.0047
lwrist -18.6141
lhand -36.9036 44.9094
lfingers 7.12502
lthumb -9.9816 74.6527
rfemur -26.1394 -36.1056 16.5435
rtibia 73.9464
rfoot -30.7468 -19.808
rtoes -26.7085
lfemur -67.4557 43.4958 -15.0318
ltibia 73.8467
lfoot -8.63012 18.2847
ltoes -0.656881
754
root -1.4461 14.1687 2.07159 16.146 -46.8104 -14.768
lowerback 14.0026 4.51567 5.91807
upperback -3.72971 7.43008 2.57311
thorax -11.5685 3.19534 -2.22949
lowerneck -2.52206 7.36818 0.345835
upperneck 2.49146 9.77565 1.35533
head 1.12778 4.90584 0.522764
rclavicle -6.62372e-014 -1.20016e-014
rhumerus -43.7664 43.4859 -99.8126
rradius 104.727
rwrist -67.182
rhand 0.0411995 -28.4551
rfingers 7.12502
rthumb 25.6298 -56.7502
lclavicle -6.62372e-014 -1.20016e-014
lhumerus 1.2151 10.9162 79.0469
lradius 87.9921
lwrist -18.3033
lhand -36.6261 44.6535
lfingers 7.12502
lthumb -9.71391 74.4095
rfemur -25.6718 -36.3445 16.5853
rtibia 73.3422
rfoot -30.2972 -20.1293
rtoes -26.9877
lfemur -68.0636 43.188 -15.53
ltibia 74.145
lfoot -9.02984 19.4989
ltoes 0.533813
755
root -1.44102 14.1859 2.15153 16.3857 -45.9217 -14.9113
lowerback 13.9302 4.48665 6.04985
upperback -3.74938 7.41941 2.65721
thorax -11.5453 3.18533 -2.20193
lowerneck -2.54998 7.16593 0.264008
upperneck 2.24463 9.51258 1.30226
head 1.05505 4.7724 0.50947
rclavicle -1.0781e-013 1.30701e-014
rhumerus -42.6627 42.7458 -98.9346
rradius 103.44
rwrist -66.4456
rhand -1.49582 -29.2394
rfingers 7.12502
rthumb 24.1569 -57.7383
lclavicle -1.0781e-013 1.30701e-014
lhumerus 0.918331 10.4663 79.2324
lradius 87.9805
lwrist -17.9708
lhand -36.3211 44.3965
lfingers 7.12502
lthumb -9.41959 74.166
rfemur -25.144 -36.5223 16.6219
rtibia 72.7041
rfoot -29.8149 -20.5046
rtoes -27.1908
lfemur -68.6023 42.8194 -15.986
ltibia 74.4225
lfoot -9.45908 20.5637
ltoes 1.60405
756
root -1.43711 14.2043 2.23508 16.5861 -44.9914 -15.0305
lowerback 13.8494 4.47431 6.15836
upperback -3.76605 7.42587 2.74234
thorax -11.5155 3.18562 -2.16342
lowerneck -2.5866 6.93942 0.17156
upperneck 2.00288 9.21657 1.27577
head 0.984158 4.62295 0.506177
rclavicle -3.3284e-014 6.29899e-015
rhumerus -41.5822 41.9766 -98.0971
rradius 102.157
rwrist -65.8472
rhand -3.08554 -30.2589
rfingers 7.12502
rthumb 22.6319 -58.952
lclavicle -3.3284e-014 6.29899e-015
lhumerus 0.571741 9.91611 79.4818
lradius 87.957
lwrist -17.6064
lhand -36.025 44.2038
lfingers 7.12502
lthumb -9.13388 73.986
rfemur -24.5561 -36.6176 16.6446
rtibia 72.0363
rfoot -29.3022 -20.9239
rtoes -27.2907
lfemur -69.0572 42.3954 -16.3979
ltibia 74.6682
lfoot -9.88421 21.4408
ltoes 2.47476
757
root -1.43444 14.224 2.32241 16.7392 -44.0267 -15.1148
lowerback 13.76 4.47978 6.23511
upperback -3.7798 7.44906 2.82472
thorax -11.4795 3.19647 -2.1133
lowerneck -2.63461 6.68697 0.0648713
upperneck 1.77291 8.88544 1.28322
head 0.917354 4.45646 0.515957
rclavicle -1.61963e-013 -1.97915e-014
rhumerus -40.5262 41.1955 -97.3067
rradius 100.899
rwrist -65.3606
rhand -4.5878 -31.4381
rfingers 7.12502
rthumb 21.1894 -60.3001
lclavicle -1.61963e-013 -1.97915e-014
lhumerus 0.172856 9.24737 79.7926
lradius 87.9061
lwrist -17.2042
lhand -35.7742 44.1358
lfingers 7.12502
lthumb -8.89193 73.9284
rfemur -23.9083 -36.6046 16.6408
rtibia 71.3452
rfoot -28.7608 -21.3725
rtoes -27.2713
lfemur -69.4177 41.918 -16.769
ltibia 74.8721
lfoot -10.2726 22.1138
ltoes 3.10776
758
root -1.43291 14.2455 2.4136 16.8361 -43.0333 -15.151
lowerback 13.6631 4.50216 6.27161
upperback -3.79053 7.486 2.8997
thorax -11.4385 3.21688 -2.05145
lowerneck -2.696 6.40773 -0.0585577
upperneck 1.5584 8.5183 1.32752
head 0.856197 4.27247 0.540278
rclavicle -3.72752e-014 3.85301e-015
rhumerus -39.4935 40.4296 -96.5729
rradius 99.6922
rwrist -64.9468
rhand -5.88108 -32.6696
rfingers 7.12502
rthumb 19.9467 -61.6659
lclavicle -3.72752e-014 3.85301e-015
lhumerus -0.27677 8.4498 80.1608
lradius 87.812
lwrist -16.7629
lhand -35.592 44.2289
lfingers 7.12502
lthumb -8.71613 74.029
rfemur -23.2013 -36.4531 16.5955
rtibia 70.6399
rfoot -28.1837 -21.8412
rtoes -27.1507
lfemur -69.6767 41.3852 -17.1076
ltibia 75.0256
lfoot -10.5988 22.5881
ltoes 3.49823
